<mxfile host="Electron" agent="Mozilla/5.0 (Windows NT 10.0; Win64; x64) AppleWebKit/537.36 (KHTML, like Gecko) draw.io/27.0.5 Chrome/134.0.6998.205 Electron/35.3.0 Safari/537.36" version="27.0.5">
  <diagram name="Seite-1" id="CgBPDqheccOpJ3F2ojuo">
    <mxGraphModel dx="1281" dy="660" grid="1" gridSize="10" guides="1" tooltips="1" connect="1" arrows="1" fold="1" page="1" pageScale="1" pageWidth="827" pageHeight="1169" math="0" shadow="0">
      <root>
        <mxCell id="0" />
        <mxCell id="1" parent="0" />
        <mxCell id="uT-WgWBM6-1G0FvrIlkl-38" style="edgeStyle=orthogonalEdgeStyle;rounded=0;orthogonalLoop=1;jettySize=auto;html=1;exitX=1;exitY=0.5;exitDx=0;exitDy=0;entryX=0;entryY=0.5;entryDx=0;entryDy=0;" parent="1" source="uT-WgWBM6-1G0FvrIlkl-9" edge="1">
          <mxGeometry relative="1" as="geometry">
            <mxPoint x="120" y="300" as="targetPoint" />
          </mxGeometry>
        </mxCell>
        <mxCell id="uT-WgWBM6-1G0FvrIlkl-9" value="" style="ellipse;fillColor=strokeColor;html=1;" parent="1" vertex="1">
          <mxGeometry x="30" y="285" width="30" height="30" as="geometry" />
        </mxCell>
        <mxCell id="uT-WgWBM6-1G0FvrIlkl-19" value="3" style="rounded=0;orthogonalLoop=1;jettySize=auto;html=1;exitX=1;exitY=0.5;exitDx=0;exitDy=0;entryX=0;entryY=0.5;entryDx=0;entryDy=0;startArrow=classic;startFill=1;fontSize=12;" parent="1" source="uT-WgWBM6-1G0FvrIlkl-10" target="uT-WgWBM6-1G0FvrIlkl-12" edge="1">
          <mxGeometry x="-0.0035" y="9" relative="1" as="geometry">
            <mxPoint as="offset" />
          </mxGeometry>
        </mxCell>
        <mxCell id="uT-WgWBM6-1G0FvrIlkl-10" value="OFF" style="html=1;align=center;verticalAlign=top;rounded=1;absoluteArcSize=1;arcSize=10;dashed=0;whiteSpace=wrap;" parent="1" vertex="1">
          <mxGeometry x="250" y="240" width="80" height="40" as="geometry" />
        </mxCell>
        <mxCell id="uT-WgWBM6-1G0FvrIlkl-54" value="3, 4" style="edgeStyle=orthogonalEdgeStyle;rounded=0;orthogonalLoop=1;jettySize=auto;html=1;exitX=0;exitY=0.75;exitDx=0;exitDy=0;entryX=1;entryY=0.75;entryDx=0;entryDy=0;" parent="1" source="uT-WgWBM6-1G0FvrIlkl-11" target="uT-WgWBM6-1G0FvrIlkl-29" edge="1">
          <mxGeometry relative="1" as="geometry" />
        </mxCell>
        <mxCell id="uT-WgWBM6-1G0FvrIlkl-57" value="1, 2" style="edgeStyle=orthogonalEdgeStyle;rounded=0;orthogonalLoop=1;jettySize=auto;html=1;exitX=1;exitY=0.5;exitDx=0;exitDy=0;startArrow=classic;startFill=1;fillColor=#919191;strokeColor=#7B7B7B;" parent="1" source="uT-WgWBM6-1G0FvrIlkl-11" target="uT-WgWBM6-1G0FvrIlkl-13" edge="1">
          <mxGeometry relative="1" as="geometry" />
        </mxCell>
        <mxCell id="uT-WgWBM6-1G0FvrIlkl-11" value="STATE_OF_CHARGE" style="html=1;align=center;verticalAlign=top;rounded=1;absoluteArcSize=1;arcSize=10;dashed=0;whiteSpace=wrap;" parent="1" vertex="1">
          <mxGeometry x="400" y="360" width="140" height="40" as="geometry" />
        </mxCell>
        <mxCell id="uT-WgWBM6-1G0FvrIlkl-12" value="OPERATING" style="html=1;align=center;verticalAlign=top;rounded=1;absoluteArcSize=1;arcSize=10;dashed=0;whiteSpace=wrap;" parent="1" vertex="1">
          <mxGeometry x="510" y="240" width="90" height="40" as="geometry" />
        </mxCell>
        <mxCell id="uT-WgWBM6-1G0FvrIlkl-59" value="3, 4" style="edgeStyle=orthogonalEdgeStyle;rounded=0;orthogonalLoop=1;jettySize=auto;html=1;exitX=0.5;exitY=1;exitDx=0;exitDy=0;entryX=0.5;entryY=1;entryDx=0;entryDy=0;fillColor=#919191;strokeColor=#7B7B7B;" parent="1" source="uT-WgWBM6-1G0FvrIlkl-13" target="uT-WgWBM6-1G0FvrIlkl-29" edge="1">
          <mxGeometry relative="1" as="geometry" />
        </mxCell>
        <mxCell id="uT-WgWBM6-1G0FvrIlkl-13" value="Anzeige Restlaufzeit (in Minuten)" style="html=1;align=center;verticalAlign=top;rounded=1;absoluteArcSize=1;arcSize=10;dashed=0;whiteSpace=wrap;fillColor=#FFFFFF;strokeColor=#7B7B7B;" parent="1" vertex="1">
          <mxGeometry x="610" y="360" width="140" height="40" as="geometry" />
        </mxCell>
        <mxCell id="uT-WgWBM6-1G0FvrIlkl-27" value="&lt;font style=&quot;font-size: 14px;&quot;&gt;Legende&lt;/font&gt;:&lt;div&gt;1 - Knopf 1x kurz gedr端ckt&lt;/div&gt;&lt;div&gt;2 - Knopf 2 x kurz gedr端ckt&lt;/div&gt;&lt;div&gt;3 - Knopf 1 x lange gedr端ckt&lt;/div&gt;&lt;div&gt;4 - 5s kein Dr端cken &amp;amp; nicht in Betrieb&lt;/div&gt;" style="text;html=1;align=left;verticalAlign=middle;whiteSpace=wrap;rounded=0;" parent="1" vertex="1">
          <mxGeometry x="40" y="40" width="320" height="80" as="geometry" />
        </mxCell>
        <mxCell id="uT-WgWBM6-1G0FvrIlkl-53" value="1, 3" style="edgeStyle=orthogonalEdgeStyle;rounded=0;orthogonalLoop=1;jettySize=auto;html=1;exitX=1;exitY=0.25;exitDx=0;exitDy=0;" parent="1" source="uT-WgWBM6-1G0FvrIlkl-29" edge="1">
          <mxGeometry relative="1" as="geometry">
            <mxPoint x="400" y="369.8823529411766" as="targetPoint" />
          </mxGeometry>
        </mxCell>
        <mxCell id="uT-WgWBM6-1G0FvrIlkl-58" value="2" style="edgeStyle=orthogonalEdgeStyle;rounded=0;orthogonalLoop=1;jettySize=auto;html=1;exitX=0.5;exitY=0;exitDx=0;exitDy=0;entryX=0.5;entryY=0;entryDx=0;entryDy=0;fillColor=#919191;strokeColor=#7B7B7B;" parent="1" source="uT-WgWBM6-1G0FvrIlkl-29" target="uT-WgWBM6-1G0FvrIlkl-13" edge="1">
          <mxGeometry relative="1" as="geometry" />
        </mxCell>
        <mxCell id="uT-WgWBM6-1G0FvrIlkl-29" value="OFF" style="html=1;align=center;verticalAlign=top;rounded=1;absoluteArcSize=1;arcSize=10;dashed=0;whiteSpace=wrap;" parent="1" vertex="1">
          <mxGeometry x="250" y="360" width="80" height="40" as="geometry" />
        </mxCell>
        <mxCell id="uT-WgWBM6-1G0FvrIlkl-43" style="edgeStyle=orthogonalEdgeStyle;rounded=0;orthogonalLoop=1;jettySize=auto;html=1;exitX=1;exitY=0.5;exitDx=0;exitDy=0;entryX=0;entryY=0.5;entryDx=0;entryDy=0;" parent="1" source="uT-WgWBM6-1G0FvrIlkl-42" target="uT-WgWBM6-1G0FvrIlkl-10" edge="1">
          <mxGeometry relative="1" as="geometry" />
        </mxCell>
        <mxCell id="uT-WgWBM6-1G0FvrIlkl-42" value="" style="ellipse;fillColor=strokeColor;html=1;" parent="1" vertex="1">
          <mxGeometry x="160" y="245" width="30" height="30" as="geometry" />
        </mxCell>
        <mxCell id="uT-WgWBM6-1G0FvrIlkl-45" style="edgeStyle=orthogonalEdgeStyle;rounded=0;orthogonalLoop=1;jettySize=auto;html=1;exitX=1;exitY=0.5;exitDx=0;exitDy=0;entryX=0;entryY=0.5;entryDx=0;entryDy=0;" parent="1" source="uT-WgWBM6-1G0FvrIlkl-44" target="uT-WgWBM6-1G0FvrIlkl-29" edge="1">
          <mxGeometry relative="1" as="geometry" />
        </mxCell>
        <mxCell id="uT-WgWBM6-1G0FvrIlkl-44" value="" style="ellipse;fillColor=strokeColor;html=1;" parent="1" vertex="1">
          <mxGeometry x="160" y="365" width="30" height="30" as="geometry" />
        </mxCell>
        <mxCell id="uT-WgWBM6-1G0FvrIlkl-46" value="Knopfinteraktion" style="swimlane;fontStyle=4;align=center;verticalAlign=top;childLayout=stackLayout;horizontal=1;startSize=60;horizontalStack=0;resizeParent=1;resizeParentMax=0;resizeLast=0;collapsible=0;marginBottom=0;html=1;rounded=1;absoluteArcSize=1;arcSize=50;whiteSpace=wrap;" parent="1" vertex="1">
          <mxGeometry x="120" y="160" width="650" height="280" as="geometry" />
        </mxCell>
        <mxCell id="CwobSovcb0TT3o7f1JHm-2" value="OperatingStates" style="text;html=1;align=center;verticalAlign=middle;whiteSpace=wrap;rounded=0;" vertex="1" parent="1">
          <mxGeometry x="145" y="270" width="60" height="30" as="geometry" />
        </mxCell>
        <mxCell id="CwobSovcb0TT3o7f1JHm-3" value="DisplayStates" style="text;html=1;align=center;verticalAlign=middle;whiteSpace=wrap;rounded=0;" vertex="1" parent="1">
          <mxGeometry x="145" y="390" width="60" height="30" as="geometry" />
        </mxCell>
      </root>
    </mxGraphModel>
  </diagram>
</mxfile>
